PathFileType	4	(X/Y/Z)	Patient4_TMGait_0pt2_01_left_20.trc.trc
DataRate	CameraRate	NumFrames	NumMarkers	Units	OrigDataRate	OrigDataStartFrame	OrigNumFrames
44.164037854890	44.164037854890	4	33	mm	44.164037854890	1	       141
Frame#	Time	Sacral			L.Shoulder			Chest			R.Shoulder			Neck			R.ASIS			L.ASIS			R.Thigh.Superior			R.Thigh.Lateral			R.Thigh.Inferior			R.Patella			L.Thigh.Superior			L.Thigh.Lateral			L.Thigh.Inferior			L.Patella			L.Shank.Superior			L.Shank.Lateral			L.Shank.Inferior			R.Shank.Superior			R.Shank.Lateral			R.Shank.Inferior			R.Heel			R.Midfoot.Superior			R.Midfoot.Lateral			R.Toe			L.Heel			L.Midfoot.Lateral			L.Midfoot.Superior			L.Toe			L.Elbow			L.Wrist			R.Elbow			R.Wrist			
		X1	Y1	Z1	X2	Y2	Z2	X3	Y3	Z3	X4	Y4	Z4	X5	Y5	Z5	X6	Y6	Z6	X7	Y7	Z7	X8	Y8	Z8	X9	Y9	Z9	X10	Y10	Z10	X11	Y11	Z11	X12	Y12	Z12	X13	Y13	Z13	X14	Y14	Z14	X15	Y15	Z15	X16	Y16	Z16	X17	Y17	Z17	X18	Y18	Z18	X19	Y19	Z19	X20	Y20	Z20	X21	Y21	Z21	X22	Y22	Z22	X23	Y23	Z23	X24	Y24	Z24	X25	Y25	Z25	X26	Y26	Z26	X27	Y27	Z27	X28	Y28	Z28	X29	Y29	Z29	X30	Y30	Z30	X31	Y31	Z31	X32	Y32	Z32	X33	Y33	Z33	

1	46.010000000000	661.852997556457	1016.727828492178	600.019025940965	867.758974121740	1425.080315795761	403.132357625169	967.117803773663	1351.988541004226	564.492729996988	894.685709969777	1437.523276164710	737.948823295248	868.642588707161	1492.592656295970	557.970819509364	890.930150780038	935.929985117122	710.057837815391	868.750604725503	960.279551926228	437.624911958188	925.870588314417	734.644272206791	662.645195918834	845.531167421142	622.668417909128	718.397724758219	913.000702183498	574.056955098781	628.123277936479	911.228387535944	484.736214239682	627.647683349923	931.002965719783	760.025699298358	464.619307802758	865.890513746288	641.348817101027	382.193591070187	956.291914162144	564.258624652991	445.284202059240	957.763540375295	478.455405130859	436.039448536007	891.833982583978	418.775795459579	418.046286872211	758.782219933262	375.916366184159	351.548980127274	743.305474458549	242.917757110493	395.239901559819	874.461300051099	397.954073724948	633.072425073162	801.539729002034	297.605154243839	698.510263699540	825.259567647223	203.502102133326	626.543653840452	673.507264037058	45.086008979066	609.168382781396	849.300358425666	96.673223777021	627.644489457927	763.935969664821	37.828296746232	674.345457939383	970.243148937645	41.254286200729	643.609249058410	552.310989862406	181.041771288746	406.861857679191	617.184051203870	130.452983440041	335.678133287811	719.326831864341	134.124382822109	367.889387210245	795.942995484046	30.434392601944	354.461780197725	774.998323543553	1082.869699604440	293.304092669345	779.362617599725	822.576013147564	293.011421382116	835.370106639886	1128.274044225947	920.006083146458	1007.821875487710	945.529813901733	991.005750026560	
2	46.032642857143	661.512498446840	1013.674447462995	604.368593898899	862.536061249710	1422.856792184958	403.918738366169	964.791366221575	1350.039174941803	563.498939758420	895.466189093649	1435.564595101960	738.173753747151	865.964328094443	1490.416709785732	558.563801914301	892.383121125764	934.305188494092	711.005485328209	866.165690313934	958.554631544680	439.032598318050	928.618313808557	733.456688375993	662.290380567392	849.831618854468	620.391516964537	718.073874699996	916.863606043571	572.734129144045	626.867610615326	915.664399187968	482.083397324282	626.188320105713	933.642017569174	762.721178252151	466.851299628149	873.308310384583	642.443786666095	384.192035462556	965.859129174996	568.078659463196	447.662933406161	969.366976114505	481.231513727107	437.642529989393	902.441692130612	420.818967400277	419.864689017630	767.511353624256	380.817881215415	355.172088948075	750.558790522579	247.635559137158	398.192909609991	876.776307333921	395.658939761985	631.883680144384	802.442125417059	296.769293054186	697.943095912627	823.524934651324	202.414292533288	625.957559577773	669.121712429705	45.630852451500	609.254747421677	845.103672205230	96.611098329403	627.575165269310	759.556007955110	38.066172370378	674.432270121472	965.857965152387	40.924101126696	643.634109497553	558.806310839640	190.089324408924	412.605652184402	621.027693472444	138.731030938665	339.701828270798	723.785520097310	139.165987442856	370.171443853172	796.485672775667	30.686031324253	353.618275186673	761.182889518288	1083.619978222042	295.825985316861	757.751587089535	823.603803875579	296.992760863940	846.159219932956	1124.909364299767	920.803515898081	1029.310775881931	953.165283860984	984.654355066570	
3	46.055285714286	661.034151138715	1010.407365881411	608.808262252103	857.169570379495	1420.423879512561	404.772347871654	962.398056423938	1347.825437282422	562.466898711195	896.316811399657	1433.305438738751	738.396579272787	863.244558022100	1488.003431042442	559.213040785419	893.816646650028	932.424584086123	711.844210641822	863.321951605549	956.615261492462	440.366301737205	931.415782355533	732.109016081675	661.741435662751	854.280459276263	617.907182390615	717.526683398237	920.871802335840	571.272710147929	625.343697329417	920.276116884777	479.261280146922	624.425143738687	936.071036308057	765.306781213195	468.853078237865	880.418699944404	643.412041307803	386.076297600834	975.223402666908	571.862870040801	449.797507386900	980.844750978866	484.051685791147	439.023119419319	913.105161723076	422.785694300396	421.525601298290	776.337839846578	385.105810556274	358.812450878043	758.471308716346	251.657645401053	401.166010029999	879.186194465181	393.193015858724	630.450261163962	803.391528110053	295.862849823834	697.194045406422	821.726274374648	201.240932346108	625.257630168707	664.561704020896	46.193745734293	609.330262936053	840.723952980681	96.546641277040	627.475809819703	754.994299939409	38.319531201056	674.504410869448	961.287398476010	40.593893558666	643.660082170204	566.168114827821	197.255320446747	418.618148698133	625.960435364305	145.684645354980	343.840217115144	729.379542364813	143.620297246311	372.437930489766	798.986369117351	31.098755467740	352.453384306725	747.323088108955	1084.114456016926	298.649240966768	736.062022814305	824.428709059395	301.363059941424	857.912026821536	1121.086787340585	921.245810757298	1051.888159775607	960.926824398852	977.408755303430	
4	46.077928571429	660.396606103928	1006.999867785455	613.192151701964	851.803924351593	1417.829806390785	405.687651245258	960.006086857584	1345.365452649361	561.411774263980	897.241602422137	1430.746670852784	738.600051985218	860.571921772773	1485.384915165048	559.913392166093	895.167005128733	930.283064268034	712.481408845944	860.237634308975	954.486495079038	441.532528409758	934.134240650082	730.596013996837	660.934630901560	858.711674947395	615.253563306400	716.699704977245	924.856866675243	569.681235731496	623.512001921480	924.871977259861	476.328422215505	622.321832294657	938.094338379588	767.635163585297	470.458021491998	886.788650229421	644.168785262543	387.719118036494	983.869924578663	575.426077803786	451.515932791581	991.627561283116	486.818737640782	440.046729142137	923.393208468368	424.570032785310	422.887780938204	784.989009129622	388.317866103039	362.270512242301	767.081883751642	254.523890180304	403.981002646106	881.569500289142	390.600585929225	628.747166231344	804.320235134252	294.897997601826	696.236494998422	819.873607221103	199.997994684103	624.434353025379	659.924354156676	46.746873185692	609.390279594104	836.245565920656	96.479646158087	627.340348731745	750.346224565919	38.577976089117	674.557883707795	956.625835439834	40.278332393460	643.686700227415	574.620484459171	201.458458613079	424.630139446405	632.399628035405	150.453247866991	347.870557658414	736.477317924820	147.031143456630	374.527508523433	804.255073254331	31.690033472193	350.882834328376	733.958688978218	1084.253558462405	301.785593969735	715.187213498635	824.947149028451	306.124135569714	870.610421954181	1116.842941741914	921.109806666427	1075.115497923723	968.642954170588	969.070038514173	
